<svg width="24" height="27" viewBox="0 0 24 27" fill="none" xmlns="http://www.w3.org/2000/svg">
<path d="M5.5 11.339V19.8051C5.5 20.7479 5.5 21.2193 5.79289 21.5122C6.08579 21.8051 6.55719 21.8051 7.5 21.8051H16.5C17.4428 21.8051 17.9142 21.8051 18.2071 21.5122C18.5 21.2193 18.5 20.7479 18.5 19.8051V11.339" stroke="white"/>
<path d="M20.5 12.9915L12.6139 6.85875C12.2528 6.57794 11.7472 6.57794 11.3861 6.85875L3.5 12.9915" stroke="white" stroke-linecap="round"/>
<path d="M14.5 21.2542V16.644C14.5 15.5395 13.6046 14.644 12.5 14.644H11.5C10.3954 14.644 9.5 15.5395 9.5 16.644V21.2542" stroke="white" stroke-linejoin="round"/>
<path d="M17.5 10.2373V6.38135" stroke="white" stroke-linecap="round"/>
</svg>
