<svg width="24" height="27" viewBox="0 0 24 27" fill="none" xmlns="http://www.w3.org/2000/svg">
<path d="M17.5 19.3272V5.31684C17.5 4.67788 16.7879 4.29677 16.2562 4.65119L14.9867 5.49754C14.6969 5.69078 14.3153 5.67422 14.0432 5.45659L12.4998 4.22183C12.2076 3.98809 11.7924 3.98809 11.5002 4.22183L9.95679 5.45659C9.68475 5.67422 9.30314 5.69078 9.01327 5.49754L7.74376 4.65119C7.21212 4.29677 6.5 4.67788 6.5 5.31683V19.3272C6.5 19.9662 7.21212 20.3473 7.74376 19.9928L9.01327 19.1465C9.30314 18.9533 9.68475 18.9698 9.95679 19.1875L11.5002 20.4222C11.7924 20.656 12.2076 20.656 12.4998 20.4222L14.0432 19.1875C14.3153 18.9698 14.6969 18.9533 14.9867 19.1465L16.2562 19.9928C16.7879 20.3473 17.5 19.9662 17.5 19.3272Z" stroke="#222222"/>
<path d="M9.5 9.82202H14.5" stroke="#222222" stroke-linecap="round"/>
<path d="M9.5 12.322H14.5" stroke="#222222" stroke-linecap="round"/>
<path d="M9.5 14.822H14.5" stroke="#222222" stroke-linecap="round"/>
</svg>
